<svg width="197" height="52" viewBox="0 0 197 52" fill="none" xmlns="http://www.w3.org/2000/svg">
<g id="Rectangle 5" filter="url(#filter0_d_48_56)">
<path d="M0 20C0 8.9543 8.95431 0 20 0H168.153C179.199 0 188.153 8.95431 188.153 20V24C188.153 35.0457 179.199 44 168.153 44H20C8.95431 44 0 35.0457 0 24V20Z" fill="#F2EDE7"/>
<path d="M0.5 20C0.5 9.23045 9.23045 0.5 20 0.5H168.153C178.923 0.5 187.653 9.23045 187.653 20V24C187.653 34.7696 178.923 43.5 168.153 43.5H20C9.23045 43.5 0.5 34.7696 0.5 24V20Z" stroke="#D7BFB8"/>
</g>
<defs>
<filter id="filter0_d_48_56" x="0" y="0" width="196.153" height="52" filterUnits="userSpaceOnUse" color-interpolation-filters="sRGB">
<feFlood flood-opacity="0" result="BackgroundImageFix"/>
<feColorMatrix in="SourceAlpha" type="matrix" values="0 0 0 0 0 0 0 0 0 0 0 0 0 0 0 0 0 0 127 0" result="hardAlpha"/>
<feOffset dx="4" dy="4"/>
<feGaussianBlur stdDeviation="2"/>
<feComposite in2="hardAlpha" operator="out"/>
<feColorMatrix type="matrix" values="0 0 0 0 0 0 0 0 0 0 0 0 0 0 0 0 0 0 0.25 0"/>
<feBlend mode="normal" in2="BackgroundImageFix" result="effect1_dropShadow_48_56"/>
<feBlend mode="normal" in="SourceGraphic" in2="effect1_dropShadow_48_56" result="shape"/>
</filter>
</defs>
</svg>
